# xmcd CD database file
#
# Track frame offsets:
#	150
#	17057
#	40802
#	62240
#	86095
#	106402
#	137312
#	154000
#	167547
#	189482
#
# Disc length: 2669 seconds
#
# Revision: 0
# Processed by: cddbd v1.4PL0 Copyright (c) Steve Scherf et al.
# Submitted via: CDex 1.51
#
DISCID=770a6b0a
DTITLE=Doug Markley - Not So Blue
DYEAR=2002
DGENRE=Jazz
TTITLE0=In A Rush
TTITLE1=Splat
TTITLE2=Contigo
TTITLE3=Machine Head Blues
TTITLE4=The Party
TTITLE5=Butterfly Stomp
TTITLE6=Swing Set
TTITLE7=Live in Manyunk
TTITLE8=The River
TTITLE9=Not So Blue
EXTD=YEAR: 2002
EXTT0=
EXTT1=
EXTT2=
EXTT3=
EXTT4=
EXTT5=
EXTT6=
EXTT7=
EXTT8=
EXTT9=
PLAYORDER=
